<mxfile host="app.diagrams.net" modified="2021-04-02T08:23:54.333Z" agent="5.0 (Windows NT 10.0; Win64; x64) AppleWebKit/537.36 (KHTML, like Gecko) Chrome/87.0.4280.141 Safari/537.36" etag="uowkZlHYczL4PyEP3Hai" version="14.2.6" type="github">
  <diagram name="Page-1" id="e3a06f82-3646-2815-327d-82caf3d4e204">
    <mxGraphModel dx="3236.5" dy="781" grid="1" gridSize="10" guides="1" tooltips="1" connect="1" arrows="1" fold="1" page="1" pageScale="1.5" pageWidth="1169" pageHeight="826" background="none" math="0" shadow="0">
      <root>
        <mxCell id="0" style=";html=1;" />
        <mxCell id="1" style=";html=1;" parent="0" />
        <mxCell id="G-YqSWljEGFT15W2zlpr-22" value="" style="shape=mxgraph.signs.transportation.truck_4;html=1;pointerEvents=1;strokeColor=none;verticalLabelPosition=bottom;verticalAlign=top;align=center;fillColor=#D5E8D4;" parent="1" vertex="1">
          <mxGeometry x="-1600" y="1480" width="1321.5" height="440.5" as="geometry" />
        </mxCell>
        <mxCell id="G-YqSWljEGFT15W2zlpr-21" value="" style="edgeStyle=orthogonalEdgeStyle;shape=link;rounded=0;orthogonalLoop=1;jettySize=auto;html=1;" parent="1" source="8EanOsA6HTf-lcCzWFGr-9" target="G-YqSWljEGFT15W2zlpr-20" edge="1">
          <mxGeometry relative="1" as="geometry" />
        </mxCell>
        <mxCell id="8EanOsA6HTf-lcCzWFGr-9" value="Internet" style="verticalLabelPosition=bottom;aspect=fixed;html=1;verticalAlign=top;strokeColor=none;align=center;outlineConnect=0;shape=mxgraph.citrix.cloud;" parent="1" vertex="1">
          <mxGeometry x="210" y="1410" width="210" height="137.05" as="geometry" />
        </mxCell>
        <mxCell id="8EanOsA6HTf-lcCzWFGr-25" value="" style="fontColor=#0066CC;verticalAlign=top;verticalLabelPosition=bottom;labelPosition=center;align=center;html=1;outlineConnect=0;fillColor=#CCCCCC;strokeColor=#6881B3;gradientColor=none;gradientDirection=north;strokeWidth=2;shape=mxgraph.networks.satellite;" parent="1" vertex="1">
          <mxGeometry x="-1630" y="740" width="100" height="100" as="geometry" />
        </mxCell>
        <mxCell id="G-YqSWljEGFT15W2zlpr-19" style="edgeStyle=orthogonalEdgeStyle;rounded=0;orthogonalLoop=1;jettySize=auto;html=1;shape=link;" parent="1" source="8EanOsA6HTf-lcCzWFGr-27" target="8EanOsA6HTf-lcCzWFGr-9" edge="1">
          <mxGeometry relative="1" as="geometry" />
        </mxCell>
        <mxCell id="8EanOsA6HTf-lcCzWFGr-27" value="" style="fontColor=#0066CC;verticalAlign=top;verticalLabelPosition=bottom;labelPosition=center;align=center;html=1;outlineConnect=0;fillColor=#CCCCCC;strokeColor=#6881B3;gradientColor=none;gradientDirection=north;strokeWidth=2;shape=mxgraph.networks.radio_tower;" parent="1" vertex="1">
          <mxGeometry x="-420" y="980" width="55" height="100" as="geometry" />
        </mxCell>
        <mxCell id="G-YqSWljEGFT15W2zlpr-15" style="edgeStyle=orthogonalEdgeStyle;rounded=0;orthogonalLoop=1;jettySize=auto;html=1;" parent="1" target="G-YqSWljEGFT15W2zlpr-7" edge="1">
          <mxGeometry relative="1" as="geometry">
            <mxPoint x="-1070.5" y="1529.2758620689656" as="sourcePoint" />
          </mxGeometry>
        </mxCell>
        <mxCell id="G-YqSWljEGFT15W2zlpr-11" style="edgeStyle=orthogonalEdgeStyle;rounded=0;orthogonalLoop=1;jettySize=auto;html=1;" parent="1" target="G-YqSWljEGFT15W2zlpr-7" edge="1">
          <mxGeometry relative="1" as="geometry">
            <mxPoint x="-1030.5" y="1659.7428571428572" as="sourcePoint" />
          </mxGeometry>
        </mxCell>
        <mxCell id="G-YqSWljEGFT15W2zlpr-17" style="edgeStyle=orthogonalEdgeStyle;rounded=0;orthogonalLoop=1;jettySize=auto;html=1;" parent="1" source="G-YqSWljEGFT15W2zlpr-5" target="G-YqSWljEGFT15W2zlpr-7" edge="1">
          <mxGeometry relative="1" as="geometry" />
        </mxCell>
        <mxCell id="G-YqSWljEGFT15W2zlpr-5" value="气体传感器" style="outlineConnect=0;dashed=0;verticalLabelPosition=bottom;verticalAlign=top;align=center;html=1;shape=mxgraph.aws3.thermostat;gradientColor=none;fillColor=#666666;" parent="1" vertex="1">
          <mxGeometry x="-432.25" y="1680" width="79.5" height="79.5" as="geometry" />
        </mxCell>
        <mxCell id="G-YqSWljEGFT15W2zlpr-7" value="" style="fontColor=#0066CC;verticalAlign=top;verticalLabelPosition=bottom;labelPosition=center;align=center;html=1;outlineConnect=0;fillColor=#CCCCCC;strokeColor=#6881B3;gradientColor=none;gradientDirection=north;strokeWidth=2;shape=mxgraph.networks.satellite_dish;" parent="1" vertex="1">
          <mxGeometry x="-580" y="1380" width="90" height="100" as="geometry" />
        </mxCell>
        <mxCell id="G-YqSWljEGFT15W2zlpr-9" value="" style="html=1;outlineConnect=0;fillColor=#CCCCCC;strokeColor=#6881B3;gradientColor=none;gradientDirection=north;strokeWidth=2;shape=mxgraph.networks.comm_link_edge;html=1;exitX=0.84;exitY=0.17;exitDx=0;exitDy=0;exitPerimeter=0;" parent="1" target="8EanOsA6HTf-lcCzWFGr-25" edge="1">
          <mxGeometry width="100" height="100" relative="1" as="geometry">
            <mxPoint x="-1083.22" y="1503.0149999999999" as="sourcePoint" />
            <mxPoint x="-985.3500000000004" y="850.0000000000005" as="targetPoint" />
          </mxGeometry>
        </mxCell>
        <mxCell id="G-YqSWljEGFT15W2zlpr-18" value="" style="html=1;outlineConnect=0;fillColor=#CCCCCC;strokeColor=#6881B3;gradientColor=none;gradientDirection=north;strokeWidth=2;shape=mxgraph.networks.comm_link_edge;html=1;entryX=0.91;entryY=0.09;entryDx=0;entryDy=0;entryPerimeter=0;" parent="1" source="8EanOsA6HTf-lcCzWFGr-27" target="G-YqSWljEGFT15W2zlpr-7" edge="1">
          <mxGeometry width="100" height="100" relative="1" as="geometry">
            <mxPoint x="-1060.25" y="1550" as="sourcePoint" />
            <mxPoint x="-985.3500000000004" y="850.0000000000005" as="targetPoint" />
          </mxGeometry>
        </mxCell>
        <mxCell id="G-YqSWljEGFT15W2zlpr-20" value="外部云服务" style="whiteSpace=wrap;html=1;verticalAlign=top;strokeColor=none;" parent="1" vertex="1">
          <mxGeometry x="787" y="1103.52" width="1000" height="750" as="geometry" />
        </mxCell>
        <mxCell id="iwD6jmV7JMdVwkuPx6IW-7" value="温度设备" style="outlineConnect=0;dashed=0;verticalLabelPosition=bottom;verticalAlign=top;align=center;html=1;shape=mxgraph.aws3.thermostat;gradientColor=none;fillColor=#666666;" vertex="1" parent="1">
          <mxGeometry x="-890" y="1720" width="79.5" height="79.5" as="geometry" />
        </mxCell>
        <mxCell id="iwD6jmV7JMdVwkuPx6IW-8" style="edgeStyle=orthogonalEdgeStyle;rounded=0;orthogonalLoop=1;jettySize=auto;html=1;exitX=1;exitY=0.5;exitDx=0;exitDy=0;exitPerimeter=0;entryX=0.806;entryY=-0.002;entryDx=0;entryDy=0;entryPerimeter=0;" edge="1" parent="1" source="iwD6jmV7JMdVwkuPx6IW-7" target="G-YqSWljEGFT15W2zlpr-22">
          <mxGeometry relative="1" as="geometry">
            <mxPoint x="-1020" y="1699.5028571428572" as="sourcePoint" />
            <mxPoint x="-535" y="1490" as="targetPoint" />
            <Array as="points">
              <mxPoint x="-535" y="1760" />
            </Array>
          </mxGeometry>
        </mxCell>
        <mxCell id="iwD6jmV7JMdVwkuPx6IW-9" value="视频设备" style="outlineConnect=0;dashed=0;verticalLabelPosition=bottom;verticalAlign=top;align=center;html=1;shape=mxgraph.aws3.camera;gradientColor=none;fillColor=#666666;" vertex="1" parent="1">
          <mxGeometry x="-1110" y="1629.76" width="79.5" height="79.5" as="geometry" />
        </mxCell>
        <mxCell id="iwD6jmV7JMdVwkuPx6IW-11" value="" style="outlineConnect=0;dashed=0;verticalLabelPosition=bottom;verticalAlign=top;align=center;html=1;shape=mxgraph.aws3.generic;gradientColor=none;fillColor=#666666;" vertex="1" parent="1">
          <mxGeometry x="-1150" y="1490" width="79.5" height="79.5" as="geometry" />
        </mxCell>
        <mxCell id="iwD6jmV7JMdVwkuPx6IW-12" value="部标设备" style="text;html=1;strokeColor=none;fillColor=none;align=center;verticalAlign=middle;whiteSpace=wrap;rounded=0;" vertex="1" parent="1">
          <mxGeometry x="-1134.25" y="1580" width="50.25" height="20" as="geometry" />
        </mxCell>
        <mxCell id="iwD6jmV7JMdVwkuPx6IW-20" value="" style="shape=image;html=1;verticalAlign=top;verticalLabelPosition=bottom;labelBackgroundColor=#ffffff;imageAspect=0;aspect=fixed;image=https://cdn2.iconfinder.com/data/icons/competitive-strategy-and-corporate-training/512/151_cloud_network_server_internet_data_network_cloud_smart_computing-128.png;fillColor=#666666;" vertex="1" parent="1">
          <mxGeometry x="1173.25" y="1611.76" width="128" height="128" as="geometry" />
        </mxCell>
        <mxCell id="iwD6jmV7JMdVwkuPx6IW-21" value="C设备供应商云服务" style="text;html=1;strokeColor=none;fillColor=none;align=center;verticalAlign=middle;whiteSpace=wrap;rounded=0;" vertex="1" parent="1">
          <mxGeometry x="1416" y="1750.24" width="154.5" height="10" as="geometry" />
        </mxCell>
        <mxCell id="iwD6jmV7JMdVwkuPx6IW-23" value="" style="shape=image;html=1;verticalAlign=top;verticalLabelPosition=bottom;labelBackgroundColor=#ffffff;imageAspect=0;aspect=fixed;image=https://cdn2.iconfinder.com/data/icons/competitive-strategy-and-corporate-training/512/151_cloud_network_server_internet_data_network_cloud_smart_computing-128.png;fillColor=#666666;" vertex="1" parent="1">
          <mxGeometry x="1427.25" y="1600" width="132" height="132" as="geometry" />
        </mxCell>
        <mxCell id="iwD6jmV7JMdVwkuPx6IW-26" value="" style="shape=image;html=1;verticalAlign=top;verticalLabelPosition=bottom;labelBackgroundColor=#ffffff;imageAspect=0;aspect=fixed;image=https://cdn1.iconfinder.com/data/icons/cloud-72/64/big-data-analysis-input-server-run-cloud-128.png;fillColor=#666666;" vertex="1" parent="1">
          <mxGeometry x="903.5" y="1140" width="128" height="128" as="geometry" />
        </mxCell>
        <mxCell id="iwD6jmV7JMdVwkuPx6IW-28" value="" style="shape=image;html=1;verticalAlign=top;verticalLabelPosition=bottom;labelBackgroundColor=#ffffff;imageAspect=0;aspect=fixed;image=https://cdn1.iconfinder.com/data/icons/cloud-72/64/CPU-processor-cloud-infrastructure-virtual-server-128.png;fillColor=#666666;" vertex="1" parent="1">
          <mxGeometry x="903.5" y="1332" width="128" height="128" as="geometry" />
        </mxCell>
        <mxCell id="iwD6jmV7JMdVwkuPx6IW-35" value="中交兴路" style="text;html=1;strokeColor=none;fillColor=none;align=center;verticalAlign=middle;whiteSpace=wrap;rounded=0;" vertex="1" parent="1">
          <mxGeometry x="936" y="1460" width="56" height="20" as="geometry" />
        </mxCell>
        <mxCell id="iwD6jmV7JMdVwkuPx6IW-38" value="政府平台" style="text;html=1;strokeColor=none;fillColor=none;align=center;verticalAlign=middle;whiteSpace=wrap;rounded=0;" vertex="1" parent="1">
          <mxGeometry x="886.75" y="1268" width="154.5" height="12" as="geometry" />
        </mxCell>
        <mxCell id="iwD6jmV7JMdVwkuPx6IW-39" value="A设备供应商云服务" style="text;html=1;strokeColor=none;fillColor=none;align=center;verticalAlign=middle;whiteSpace=wrap;rounded=0;" vertex="1" parent="1">
          <mxGeometry x="910" y="1750" width="154.5" height="10" as="geometry" />
        </mxCell>
        <mxCell id="iwD6jmV7JMdVwkuPx6IW-40" value="" style="shape=image;html=1;verticalAlign=top;verticalLabelPosition=bottom;labelBackgroundColor=#ffffff;imageAspect=0;aspect=fixed;image=https://cdn2.iconfinder.com/data/icons/competitive-strategy-and-corporate-training/512/151_cloud_network_server_internet_data_network_cloud_smart_computing-128.png;fillColor=#666666;" vertex="1" parent="1">
          <mxGeometry x="923.25" y="1605.51" width="128" height="128" as="geometry" />
        </mxCell>
        <mxCell id="iwD6jmV7JMdVwkuPx6IW-41" value="B设备供应商云服务" style="text;html=1;strokeColor=none;fillColor=none;align=center;verticalAlign=middle;whiteSpace=wrap;rounded=0;" vertex="1" parent="1">
          <mxGeometry x="1160" y="1750" width="154.5" height="10.24" as="geometry" />
        </mxCell>
        <mxCell id="iwD6jmV7JMdVwkuPx6IW-45" value="MQTT&#xa;protocol" style="outlineConnect=0;fontColor=#232F3E;gradientColor=none;strokeColor=#232F3E;fillColor=#ffffff;dashed=0;verticalLabelPosition=bottom;verticalAlign=top;align=center;html=1;fontSize=12;fontStyle=0;aspect=fixed;shape=mxgraph.aws4.resourceIcon;resIcon=mxgraph.aws4.mqtt_protocol;" vertex="1" parent="1">
          <mxGeometry x="360" y="1940" width="60" height="60" as="geometry" />
        </mxCell>
      </root>
    </mxGraphModel>
  </diagram>
</mxfile>
